<?xml version="1.0" standalone="no"?>
<!DOCTYPE svg PUBLIC "-//W3C//DTD SVG 20010904//EN"
 "http://www.w3.org/TR/2001/REC-SVG-20010904/DTD/svg10.dtd">
<svg version="1.0" xmlns="http://www.w3.org/2000/svg"
 width="1024.000000pt" height="922.000000pt" viewBox="0 0 1024.000000 922.000000"
 preserveAspectRatio="xMidYMid meet">

<g transform="translate(0.000000,922.000000) scale(0.100000,-0.100000)"
fill="#000000" stroke="none">
<path d="M3360 8842 c0 -21 7 -35 19 -42 13 -6 17 -17 14 -30 -6 -23 -11 -24
-48 -10 -17 7 -24 7 -20 0 3 -6 -1 -10 -9 -10 -19 0 -21 -26 -4 -36 8 -5 9 -2
4 11 -5 15 -4 16 8 6 8 -7 12 -19 9 -27 -3 -7 2 -17 11 -20 9 -3 16 -16 16
-29 0 -28 -41 -45 -105 -45 -35 0 -44 -4 -54 -26 -10 -23 -9 -28 14 -46 14
-11 25 -26 25 -34 0 -9 11 -14 30 -14 40 0 38 -12 -10 -45 -22 -15 -40 -30
-40 -33 0 -15 64 -70 76 -65 17 6 17 5 -1 -47 -21 -59 -19 -77 10 -96 24 -16
27 -16 40 2 22 30 29 8 11 -36 -20 -50 -20 -50 2 -50 35 0 62 -29 62 -67 0
-34 1 -35 18 -20 10 10 23 17 28 17 16 0 34 -38 27 -57 -6 -15 -4 -16 9 -6 24
20 27 5 11 -52 -20 -69 -12 -100 31 -120 34 -16 34 -17 29 -70 -5 -50 -4 -55
19 -65 21 -10 24 -18 24 -58 -1 -45 0 -47 27 -44 22 2 27 -1 27 -20 -1 -21
-25 -31 -315 -126 l-313 -103 -392 -195 c-216 -108 -390 -197 -387 -200 2 -2
30 -9 61 -14 68 -11 155 -62 239 -139 59 -55 147 -162 147 -178 0 -5 -37 -30
-82 -54 -45 -25 -83 -50 -85 -55 -2 -6 14 -37 36 -70 39 -59 75 -178 252 -834
17 -63 35 -126 40 -140 4 -14 33 -119 64 -235 30 -115 61 -230 69 -255 14 -45
14 -45 21 -16 6 21 -8 89 -53 255 -33 124 -74 289 -92 366 -18 77 -45 195 -61
262 -16 67 -29 132 -29 143 0 11 -7 23 -15 26 -8 4 -15 13 -15 21 0 16 36 53
51 53 5 0 13 9 19 19 9 19 -8 127 -30 186 -4 11 -15 58 -24 105 -9 47 -19 95
-22 106 -5 17 4 27 45 53 50 30 66 61 40 76 -5 4 -15 19 -20 33 -6 15 -31 60
-57 100 -41 63 -50 72 -70 67 -26 -6 -52 9 -52 31 0 8 7 14 17 14 14 0 14 2
-2 20 -13 14 -22 17 -29 10 -15 -15 -38 -12 -63 9 -30 25 -29 35 3 50 23 10
30 9 50 -10 13 -12 30 -19 38 -16 18 7 22 27 6 27 -5 0 -10 6 -10 14 0 18 39
31 52 18 7 -7 31 0 75 24 36 19 67 34 69 34 2 0 2 -11 -2 -24 -3 -14 -1 -27 6
-31 8 -5 10 -2 7 11 -10 33 34 69 155 128 65 31 121 56 126 56 4 0 23 11 42
23 19 13 60 32 90 42 30 10 76 28 102 41 26 13 56 24 66 24 10 0 27 7 38 15
10 8 26 15 35 15 9 0 22 7 30 16 8 10 21 13 36 9 17 -4 23 -1 23 11 0 13 6 15
28 11 21 -4 31 -1 40 13 7 12 8 21 2 25 -6 3 -10 27 -10 52 0 46 7 54 14 17 9
-47 40 -94 61 -94 22 0 103 35 195 85 25 13 46 22 48 20 2 -2 -3 -18 -12 -35
-12 -25 -15 -56 -11 -146 3 -70 1 -114 -5 -114 -6 0 -10 -16 -10 -35 0 -29 3
-33 18 -28 9 4 -4 -16 -29 -43 -26 -28 -51 -59 -57 -70 -6 -11 -30 -34 -54
-50 -24 -16 -48 -33 -54 -39 -6 -5 -23 -19 -37 -30 -15 -11 -27 -26 -27 -34 0
-12 3 -12 12 -3 17 17 41 15 34 -3 -3 -8 -1 -15 4 -15 12 0 8 -34 -6 -48 -9
-8 -17 -5 -32 12 -10 13 -22 29 -25 37 -4 10 -6 10 -6 -3 -1 -9 4 -20 9 -23
18 -11 11 -35 -12 -44 -18 -7 -27 -4 -41 12 -19 22 -19 22 -13 -16 2 -20 1
-35 -4 -32 -4 3 -11 -1 -13 -7 -4 -10 -8 -9 -16 2 -10 13 -19 7 -56 -34 -48
-53 -51 -65 -30 -111 11 -24 14 -26 15 -10 1 18 3 17 13 -5 6 -14 16 -28 22
-32 6 -5 3 -14 -8 -25 -18 -17 -19 -17 -34 2 -8 11 -22 35 -29 53 -8 18 -19
30 -24 27 -6 -4 -4 -20 5 -42 8 -19 15 -46 15 -59 0 -13 5 -24 10 -24 6 0 10
-5 10 -11 0 -6 -6 -9 -14 -6 -10 4 -12 0 -9 -14 3 -10 0 -19 -6 -19 -6 0 -11
5 -11 11 0 13 -30 44 -31 32 -2 -9 0 -18 11 -55 6 -20 4 -32 -9 -47 -16 -19
-19 -19 -34 -3 -16 15 -17 14 -17 -14 0 -24 -4 -30 -19 -29 -27 2 -51 24 -51
46 0 11 -4 19 -10 19 -13 0 -13 -23 1 -37 6 -6 9 -27 7 -48 -4 -48 -31 -56
-48 -14 -15 36 -22 36 -38 0 -7 -16 -21 -39 -32 -51 -10 -12 -17 -27 -14 -33
2 -7 -6 -17 -18 -22 -14 -6 -25 -23 -30 -45 -8 -37 -1 -175 11 -225 5 -18 1
-77 -9 -145 -25 -161 -34 -281 -23 -289 5 -3 4 -72 -3 -171 -7 -91 -15 -199
-18 -240 -8 -102 -15 -186 -26 -305 -13 -132 -70 -864 -74 -934 -1 -27 -11
-23 157 -61 54 -12 96 -24 94 -27 -3 -2 -56 0 -118 6 -129 12 -132 11 -145
-62 -3 -23 -10 -48 -15 -57 -15 -30 -28 -81 -19 -75 21 13 9 -26 -26 -87 -21
-35 -38 -64 -39 -65 -1 -2 -37 2 -80 7 -87 11 -120 0 -63 -20 31 -12 34 -15
24 -36 -6 -12 -14 -20 -19 -17 -4 2 -5 -7 -1 -20 3 -14 3 -35 -1 -46 -6 -20
-8 -20 -36 -5 -29 14 -32 14 -50 -7 -10 -12 -19 -25 -19 -30 0 -9 39 1 46 12
3 5 13 9 22 9 11 0 6 -11 -20 -37 -23 -24 -42 -56 -49 -84 -8 -30 -17 -45 -25
-42 -15 6 -54 -14 -54 -27 0 -6 3 -9 8 -7 4 1 8 -3 9 -8 2 -6 -7 -10 -18 -10
-27 -1 -41 -27 -31 -57 13 -33 8 -84 -13 -153 -20 -65 -41 -97 -53 -79 -8 12
-46 34 -59 34 -5 0 -8 -57 -8 -127 l1 -128 -53 -110 c-49 -102 -92 -238 -93
-293 0 -12 7 -25 15 -28 11 -5 15 -22 15 -70 0 -37 4 -64 10 -64 6 0 14 -8 17
-17 15 -39 41 -50 173 -73 81 -13 151 -20 177 -16 24 3 44 5 44 3 1 -1 5 -85
10 -187 11 -277 19 -362 37 -392 16 -28 16 -29 -26 -71 l-42 -43 34 -57 c19
-31 69 -107 111 -168 l77 -112 10 -136 c11 -153 -2 -396 -31 -587 l-17 -114
349 2 350 3 49 115 c83 195 108 278 108 364 0 78 -33 251 -94 495 l-34 135 18
85 c10 47 36 152 59 232 46 165 136 528 172 692 13 59 26 107 29 107 13 0 93
-273 124 -425 29 -140 77 -368 101 -472 3 -12 14 -24 25 -28 19 -6 18 -35 -2
-35 -5 0 -6 5 -3 10 3 6 2 10 -4 10 -10 0 -12 -39 -4 -98 4 -29 11 -36 60 -57
79 -35 126 -33 189 9 38 26 62 53 93 106 22 40 41 77 41 82 0 13 55 -58 104
-135 20 -31 60 -75 89 -98 63 -49 223 -204 243 -235 8 -12 25 -75 37 -140 l22
-119 -62 -250 c-38 -149 -63 -271 -63 -302 l0 -53 695 0 695 0 0 38 c0 31 -5
41 -22 49 -22 10 -21 11 25 43 44 31 47 37 49 79 1 44 2 44 5 9 5 -45 33 -54
34 -10 3 135 -3 228 -15 237 -19 14 -32 140 -17 150 15 9 7 77 -19 160 -10 33
-26 128 -35 210 -14 135 -44 402 -61 543 -4 29 -9 51 -11 48 -4 -4 38 -480 58
-651 6 -49 12 -112 15 -140 2 -27 11 -121 20 -208 8 -86 14 -163 11 -170 -2
-6 -7 20 -11 58 -10 99 -34 334 -52 505 -8 80 -22 170 -29 200 -55 218 -81
588 -45 624 6 6 10 23 10 38 0 16 9 70 20 121 11 51 23 126 28 167 4 42 11 74
17 72 6 -1 88 -131 183 -288 183 -303 204 -348 333 -699 95 -260 88 -247 147
-268 85 -29 89 -36 102 -170 10 -114 10 -120 -11 -154 -18 -29 -20 -43 -15
-86 4 -29 8 -83 10 -122 2 -38 7 -141 11 -227 l8 -158 93 0 94 0 -5 43 c-21
186 -25 229 -25 278 0 41 4 58 15 63 13 5 15 -13 15 -121 0 -70 4 -140 10
-157 5 -17 12 -48 15 -68 l6 -38 349 0 c193 0 350 3 350 8 0 4 -7 57 -16 118
-16 110 -16 111 10 226 14 63 26 120 26 127 0 6 -33 27 -72 47 -87 44 -77 35
-83 70 -5 24 6 47 64 137 39 59 71 111 71 115 0 3 -12 18 -26 33 -28 30 -35
65 -95 478 -11 80 -24 167 -29 194 -7 32 -6 55 0 68 14 25 -2 87 -105 421 -27
87 -40 113 -73 147 -25 26 -48 64 -62 103 -36 102 -62 171 -76 205 -8 17 -14
43 -14 58 0 17 -4 24 -12 19 -6 -4 -8 -3 -5 2 3 6 1 30 -4 53 -5 24 -8 46 -5
48 3 3 27 -13 54 -36 39 -33 56 -41 89 -41 47 0 73 28 73 79 0 16 14 68 30
114 17 47 30 90 30 95 0 5 -12 13 -26 16 -20 5 -25 12 -21 26 6 21 -9 28 -15
8 -6 -17 -138 87 -138 108 0 5 -32 30 -72 56 -57 38 -74 45 -86 36 -11 -10
-18 -7 -33 12 -19 25 -21 56 -3 53 5 -1 9 13 10 30 7 319 8 301 -17 308 -46
13 -77 10 -83 -8 -3 -10 -4 -6 -2 9 2 16 0 28 -3 28 -4 0 -13 16 -20 35 -8 24
-19 35 -32 35 -10 0 -19 4 -19 9 0 24 -136 37 -144 14 -3 -7 -15 -13 -26 -13
-15 0 -20 7 -20 26 0 14 4 34 10 44 10 20 4 24 -135 100 -67 36 -85 50 -67 50
18 0 154 -56 232 -95 86 -44 104 -45 96 -7 -4 15 -8 38 -11 52 -3 14 -19 61
-37 105 -26 65 -44 91 -94 140 -61 59 -63 63 -99 180 -45 146 -48 172 -22 190
30 21 11 35 -49 35 -72 0 -124 22 -124 52 0 37 -41 231 -56 265 -8 17 -14 35
-14 41 0 5 -6 24 -13 41 l-13 31 -23 -21 c-13 -13 -26 -18 -32 -12 -9 9 -69
199 -69 219 0 6 18 14 40 18 44 7 50 21 25 60 -8 12 -15 33 -15 47 0 59 -7 79
-37 108 -18 17 -33 39 -33 48 0 9 -3 14 -6 10 -8 -7 -54 59 -54 77 0 7 -12 26
-27 42 -32 35 -40 68 -49 204 -5 87 -4 103 7 93 18 -18 49 -16 49 2 0 8 -10
44 -21 80 l-22 64 24 26 c13 13 29 25 34 25 6 0 46 36 90 80 73 74 122 107
182 125 18 5 33 -4 74 -45 37 -37 50 -46 46 -30 -12 45 17 87 56 81 4 0 7 17
7 38 0 27 5 41 16 45 15 6 14 9 -5 30 -13 13 -42 35 -66 47 l-44 23 -73 -18
c-40 -10 -102 -30 -138 -44 -59 -23 -245 -126 -312 -174 -16 -11 -28 -15 -28
-10 0 5 -12 12 -26 15 -24 4 -26 2 -20 -24 4 -23 0 -33 -25 -53 -37 -32 -44
-32 -63 -4 -24 34 -19 40 14 23 17 -9 35 -13 40 -10 12 7 2 55 -16 72 -13 14
-5 68 21 130 9 20 13 38 11 41 -8 7 -111 -61 -130 -85 -13 -18 -13 -21 -2 -17
16 6 41 -30 31 -46 -3 -6 -1 -10 4 -10 6 0 11 -12 11 -27 -1 -27 -1 -27 -15
-8 -8 11 -19 25 -24 31 -6 8 -5 16 2 23 8 8 5 11 -11 11 -12 0 -22 6 -22 13 0
6 -8 21 -16 32 -15 20 -15 20 -34 -3 l-19 -22 -17 29 c-15 26 -21 28 -43 20
-21 -7 -18 -2 18 31 24 22 47 40 51 40 5 0 12 -12 17 -26 9 -27 9 -26 93 55
72 70 95 102 38 53 -15 -12 -22 -12 -62 3 -24 9 -49 14 -55 10 -6 -3 -11 -3
-11 1 0 13 145 145 188 171 50 30 105 34 277 20 217 -17 198 -11 285 -88 43
-38 103 -104 132 -146 50 -72 56 -77 106 -90 33 -8 70 -27 95 -48 22 -19 44
-35 49 -35 4 0 8 -6 8 -13 0 -18 32 -47 52 -47 8 0 39 -17 69 -38 83 -58 83
-58 69 -32 -7 12 -119 129 -249 259 -207 207 -249 244 -337 297 -55 34 -125
80 -154 103 -30 22 -71 46 -90 53 -19 6 -49 22 -66 35 -17 12 -36 23 -42 23
-6 0 -12 3 -14 8 -1 4 -23 18 -48 31 -25 13 -49 29 -55 35 -15 17 -91 67 -157
101 -34 18 -52 32 -45 37 6 4 14 3 17 -2 3 -4 25 -16 50 -26 25 -10 48 -22 52
-28 5 -6 8 -2 8 10 0 11 -9 29 -19 41 -10 11 -21 29 -24 39 -4 16 -5 16 -6 -3
-1 -13 -7 -23 -16 -23 -17 0 -19 8 -16 61 2 31 -1 37 -21 43 -20 5 -78 80 -78
102 -1 14 -42 57 -73 77 -23 15 -27 15 -27 2 0 -8 4 -15 10 -15 9 0 30 -62 30
-92 0 -28 -14 -22 -69 33 -28 27 -51 45 -51 40 0 -17 41 -91 51 -91 5 0 9 -7
9 -16 0 -19 -8 -17 -90 18 -49 21 -67 23 -175 20 l-120 -4 130 -45 c123 -42
168 -63 135 -63 -8 0 -39 9 -69 21 -60 22 -95 19 -111 -11 -12 -23 -11 -24 25
-10 19 7 45 6 91 -5 106 -24 104 -22 88 -107 -8 -39 -12 -74 -10 -76 8 -7 26
72 27 121 1 26 5 47 9 47 3 0 21 -16 40 -35 l33 -34 -7 -78 c-39 -438 -61
-831 -58 -1048 2 -147 -1 -202 -13 -245 -9 -30 -24 -103 -35 -161 -11 -59 -26
-140 -35 -180 -19 -94 -19 -167 1 -235 l16 -55 -91 -98 c-73 -79 -98 -115
-134 -192 -25 -52 -70 -148 -102 -214 -57 -119 -58 -120 -59 -215 -1 -92 -2
-96 -23 -98 -23 -2 -27 6 -23 42 4 38 -19 3 -58 -91 -45 -107 -81 -183 -82
-170 0 8 8 42 65 281 30 123 90 337 107 379 6 15 31 46 57 68 25 22 60 57 76
78 17 22 52 64 79 95 l49 56 -17 38 c-15 34 -16 41 -1 81 26 74 19 79 -40 25
-82 -73 -127 -120 -147 -153 -23 -36 -21 -56 13 -137 12 -30 11 -33 -27 -65
-21 -19 -61 -55 -89 -80 -27 -26 -75 -68 -105 -94 -52 -45 -79 -78 -50 -60 10
6 12 4 7 -9 -4 -10 -7 -20 -7 -22 0 -2 -6 -4 -14 -4 -14 0 -36 -69 -36 -114 0
-14 -5 -26 -11 -26 -6 0 -9 -6 -6 -14 3 -8 -1 -22 -8 -33 -8 -10 -11 -28 -8
-40 3 -14 1 -23 -6 -23 -6 0 -11 -9 -11 -19 0 -11 -4 -22 -9 -25 -7 -5 -11
-19 -22 -74 -1 -4 -6 -18 -11 -32 -5 -14 -12 -38 -14 -54 -2 -16 -8 -34 -14
-40 -5 -5 -10 -28 -10 -49 0 -22 -8 -50 -19 -66 -11 -15 -23 -40 -27 -57 -3
-16 -20 -52 -36 -81 -16 -29 -33 -77 -38 -108 -15 -92 -22 -95 -228 -94 -95 1
-175 -1 -178 -4 -6 -6 94 -41 195 -68 85 -23 111 -35 111 -51 0 -10 -68 -177
-76 -187 -6 -7 -380 119 -403 136 -3 2 7 41 22 87 24 74 33 88 77 125 41 34
60 62 101 149 73 154 147 325 179 417 15 44 49 140 74 212 45 126 47 137 41
210 -15 210 -29 329 -39 336 -8 5 -8 9 1 15 13 8 73 182 73 210 0 10 -5 24
-11 32 -9 13 -10 13 -6 -1 3 -9 -10 -48 -30 -85 -19 -38 -35 -71 -35 -74 0 -3
-4 -12 -9 -20 -7 -12 -8 -10 -9 7 0 13 -4 22 -8 20 -11 -3 -102 88 -102 101 0
11 -30 25 -38 17 -3 -3 -1 -5 4 -5 6 0 18 -17 27 -39 18 -40 65 -94 76 -87 3
3 5 -13 3 -34 -3 -31 1 -44 22 -66 18 -21 22 -31 15 -41 -10 -12 -110 -53
-128 -53 -5 0 -14 15 -21 33 -10 27 -13 29 -19 13 -5 -12 -58 -39 -162 -80
-84 -34 -177 -79 -206 -100 -28 -20 -83 -52 -121 -71 -38 -18 -76 -40 -84 -49
-9 -8 -19 -41 -23 -73 -13 -99 -22 -32 -21 154 1 167 7 206 27 170 8 -14 14
-15 31 -6 12 6 48 9 82 7 l61 -4 -62 63 c-57 58 -72 68 -97 64 -10 -2 -2 118
13 179 6 25 15 88 21 140 5 52 16 124 25 160 8 36 18 101 21 145 4 44 11 88
15 97 12 23 11 58 -1 58 -12 0 -13 40 -1 59 7 11 25 12 92 5 77 -8 84 -11 90
-34 4 -16 7 -19 8 -7 1 9 9 17 19 17 11 0 24 -18 39 -53 18 -43 22 -47 22 -24
1 15 5 27 11 27 6 0 9 23 7 56 -3 40 0 57 10 61 7 3 13 10 13 17 0 6 8 13 18
14 81 9 102 15 102 29 0 12 -16 14 -86 12 -82 -3 -88 -2 -105 21 -37 48 -42
52 -66 47 -22 -4 -24 -2 -18 27 6 27 5 29 -7 14 -20 -26 -60 -37 -107 -28 -54
10 -63 19 -59 61 l3 33 58 -3 c31 -1 57 2 57 7 0 12 -34 22 -76 22 -39 0 -44
13 -44 137 0 99 -4 83 91 323 48 122 62 149 147 285 l62 100 -26 21 -27 22 24
15 c42 26 418 190 514 224 39 13 99 39 135 57 36 18 100 44 143 56 72 21 78
25 73 46 -3 12 -8 66 -11 121 -6 121 -14 174 -29 192 -8 11 -8 15 2 18 13 5
15 34 6 70 -8 31 -56 40 -330 64 -226 20 -239 22 -261 45 -12 13 -27 24 -32
24 -7 0 -10 54 -8 153 2 147 1 155 -28 232 -21 56 -31 73 -33 57 -2 -15 -9
-22 -20 -20 -14 3 -16 13 -14 56 3 36 -1 60 -12 77 -11 16 -16 47 -16 94 0 38
-4 73 -10 76 -5 3 -10 22 -10 41 0 32 -2 34 -35 34 -24 0 -35 -5 -35 -15 0
-27 -15 -16 -70 50 -35 42 -61 65 -75 65 -11 0 -37 14 -58 31 -43 35 -57 31
-57 -17 0 -19 -2 -34 -5 -34 -3 0 -22 11 -43 24 -71 46 -109 42 -76 -9 9 -14
13 -25 9 -25 -4 0 -46 15 -94 34 -71 28 -104 35 -191 40 -58 3 -115 9 -127 12
-20 6 -23 3 -23 -24z m890 -328 c0 -14 -4 -23 -9 -20 -5 3 -7 15 -4 26 7 28
13 25 13 -6z m70 -224 c0 -13 -7 -20 -20 -20 -13 0 -20 7 -20 20 0 13 7 20 20
20 13 0 20 -7 20 -20z m-960 -35 c13 -14 21 -25 18 -25 -3 0 -17 11 -32 25
-15 14 -23 25 -18 25 5 0 19 -11 32 -25z m940 -5 c0 -5 -2 -10 -4 -10 -3 0 -8
5 -11 10 -3 6 -1 10 4 10 6 0 11 -4 11 -10z m-297 -142 c-24 -11 -43 -26 -43
-34 0 -8 -10 -14 -25 -14 -14 0 -25 2 -25 5 0 17 49 54 75 58 57 8 60 6 18
-15z m-248 3 c3 -5 1 -12 -5 -16 -5 -3 -10 1 -10 9 0 18 6 21 15 7z m560 -91
c3 -6 -1 -7 -9 -4 -18 7 -21 14 -7 14 6 0 13 -4 16 -10z m33 -39 c3 -8 -1 -12
-9 -9 -7 2 -15 10 -17 17 -3 8 1 12 9 9 7 -2 15 -10 17 -17z m-18 -26 c20 -24
6 -28 -15 -5 -10 11 -13 20 -8 20 6 0 16 -7 23 -15z m-272 -157 c11 -3 62
-110 62 -130 0 -5 -8 -8 -18 -8 -13 0 -27 17 -44 53 -29 61 -47 132 -26 105 7
-8 19 -17 26 -20z m496 -80 c-6 -10 -4 -10 7 0 16 15 139 17 139 1 0 -6 6 -9
13 -6 6 2 32 -2 56 -9 25 -7 48 -11 52 -8 14 8 19 -30 28 -192 10 -183 5 -208
-51 -217 -89 -14 -258 -66 -258 -79 0 -5 -4 -7 -10 -3 -5 3 -17 1 -27 -4 -10
-5 -70 -21 -133 -36 -63 -14 -139 -32 -167 -40 l-53 -13 -10 36 c-6 20 -13 56
-17 80 -5 35 -3 42 11 42 15 0 16 7 11 43 l-7 43 209 -3 c205 -2 236 -4 362
-23 40 -6 68 -7 74 -1 5 5 17 7 26 5 9 -3 6 1 -6 7 -13 7 -23 18 -23 26 0 8
-13 13 -32 14 -18 1 -114 4 -213 8 l-179 6 -8 30 c-21 84 -50 214 -55 245 l-5
36 118 2 c66 2 121 7 122 12 2 6 10 10 18 10 9 0 12 -5 8 -12z m326 2 c12 -8
11 -10 -7 -10 -13 0 -23 5 -23 10 0 13 11 13 30 0z m70 -10 c13 -9 13 -10 0
-10 -8 0 -22 5 -30 10 -13 9 -13 10 0 10 8 0 22 -5 30 -10z m-786 -121 c20 2
33 -14 34 -39 1 -41 -33 -42 -41 -2 -3 15 -9 36 -12 47 -5 14 -4 16 3 7 5 -8
12 -13 16 -13z m-114 -244 c-13 -16 -50 -21 -50 -7 0 15 13 22 38 22 21 0 22
-2 12 -15z m24 -34 c3 -5 -2 -12 -12 -16 -15 -6 -14 -8 6 -16 25 -10 30 -37 7
-45 -22 -9 -18 -22 8 -27 19 -3 20 -5 5 -11 -21 -10 -50 16 -42 37 3 8 -2 17
-10 20 -19 7 -21 38 -4 55 14 14 35 16 42 3z m1808 -209 c-10 -3 -72 24 -72
32 0 3 19 -3 41 -12 23 -9 37 -18 31 -20z m-1836 -19 c-10 -10 -19 5 -10 18 6
11 8 11 12 0 2 -7 1 -15 -2 -18z m1884 7 c0 -5 -10 -10 -22 -10 -19 0 -20 2
-8 10 19 13 30 13 30 0z m-1961 -106 c-6 -16 -13 -24 -16 -17 -5 13 16 58 23
50 3 -2 -1 -17 -7 -33z m28 -26 c-15 -9 -19 -4 -11 16 5 14 9 15 15 5 5 -8 3
-17 -4 -21z m1892 -1 c13 -16 5 -27 -20 -27 -21 0 -33 15 -24 30 9 14 31 12
44 -3z m-66 -14 c-7 -3 -13 -11 -13 -19 0 -9 -5 -12 -11 -9 -7 5 -4 14 7 26 9
11 20 16 23 13 3 -4 0 -9 -6 -11z m-1845 -50 c-11 -42 -28 -67 -28 -41 0 23
21 78 30 78 5 0 4 -17 -2 -37z m-154 5 c10 -38 7 -51 -9 -44 -10 3 -15 -1 -15
-11 0 -14 -2 -14 -15 3 -18 24 -19 61 -2 67 25 10 35 7 41 -15z m2235 -27 c9
-6 10 -11 2 -15 -13 -8 -31 1 -31 15 0 11 11 11 29 0z m36 -32 c-10 -15 -25
-10 -19 6 4 8 10 12 15 9 5 -3 7 -10 4 -15z m-65 7 c0 -2 -9 -6 -20 -9 -11 -3
-18 -1 -14 4 5 9 34 13 34 5z m-99 -62 c27 -4 48 -9 45 -11 -10 -10 -139 -3
-152 8 -21 17 -17 32 6 26 11 -3 23 0 26 5 4 7 10 4 16 -5 5 -10 29 -19 59
-23z m374 -4 c15 -17 14 -18 -16 -29 -44 -15 -49 -14 -49 9 0 11 -4 20 -10 20
-5 0 -7 -7 -3 -16 5 -14 3 -14 -15 -3 l-21 13 22 11 c34 18 73 15 92 -5z
m-295 -10 c0 -5 -2 -10 -4 -10 -3 0 -8 5 -11 10 -3 6 -1 10 4 10 6 0 11 -4 11
-10z m70 -20 c0 -5 -7 -7 -15 -4 -8 4 -12 10 -9 15 6 11 24 2 24 -11z m45 -8
c-3 -3 -11 0 -18 7 -9 10 -8 11 6 5 10 -3 15 -9 12 -12z m-2255 -87 c0 -8 -4
-15 -10 -15 -5 0 -7 7 -4 15 4 8 8 15 10 15 2 0 4 -7 4 -15z m-300 -14 c0 -6
-4 -13 -10 -16 -5 -3 -10 1 -10 9 0 9 5 16 10 16 6 0 10 -4 10 -9z m320 -312
c0 -10 -7 -19 -15 -19 -8 0 -15 -5 -15 -11 0 -6 -16 -9 -37 -7 -45 4 -53 31
-11 36 14 2 32 9 38 17 15 18 40 8 40 -16z m2805 12 c-6 -5 -39 -11 -75 -14
-65 -6 -65 -6 -25 8 46 15 114 20 100 6z m-2805 -75 c0 -7 -9 -16 -20 -19 -11
-3 -20 -10 -20 -16 0 -6 9 -11 20 -11 15 0 20 -7 20 -25 0 -20 -5 -25 -25 -25
-16 0 -25 -6 -25 -15 0 -8 9 -15 20 -15 11 0 20 -7 20 -15 0 -8 -9 -15 -19
-15 -11 0 -26 -3 -34 -6 -11 -4 -14 0 -11 13 4 13 -4 22 -28 32 l-33 14 29 6
c34 7 48 31 17 31 -25 0 -34 14 -26 40 4 13 15 20 31 20 13 0 24 5 24 10 0 6
14 10 30 10 19 0 30 -5 30 -14z m1960 -107 c0 -5 -4 -9 -10 -9 -5 0 -10 7 -10
16 0 8 5 12 10 9 6 -3 10 -10 10 -16z m8 -37 c-11 -13 -10 -15 4 -9 10 3 20 2
24 -4 10 -17 -1 -20 -30 -10 -27 11 -35 36 -13 44 20 7 29 -4 15 -21z m-4 -92
c8 0 17 -7 20 -16 3 -8 10 -13 15 -9 9 5 155 -78 166 -95 3 -4 -14 -23 -37
-42 -24 -18 -50 -38 -58 -45 -8 -7 -44 -36 -80 -64 l-65 -52 -7 34 c-5 19 -5
66 -1 104 3 39 7 88 8 110 5 110 5 111 16 93 5 -10 16 -18 23 -18z m-1737
-149 c-3 -14 -1 -34 5 -44 5 -10 7 -23 5 -30 -3 -7 -10 0 -16 16 -6 15 -16 27
-23 27 -9 0 -10 2 -2 8 7 4 10 22 8 41 -3 29 -2 32 12 20 10 -8 14 -22 11 -38z
m13 -111 c0 -5 -4 -10 -10 -10 -5 0 -10 5 -10 10 0 6 5 10 10 10 6 0 10 -4 10
-10z m-238 -213 c11 -18 -1 -27 -37 -27 -18 0 -35 -5 -37 -11 -2 -7 -20 -8
-51 -4 -56 9 -58 29 -4 33 25 2 37 8 37 18 0 13 8 14 43 9 23 -4 45 -12 49
-18z m-12 -71 c0 -9 -12 -16 -32 -18 -42 -4 -50 -28 -9 -28 17 0 31 -3 31 -7
0 -17 -17 -32 -42 -38 -40 -10 -45 -35 -6 -35 25 0 28 -3 19 -14 -16 -19 -71
-27 -64 -9 3 7 -8 20 -26 30 -39 23 -39 33 -1 33 17 0 30 5 30 11 0 6 -13 16
-30 22 -41 15 -41 47 -1 47 17 0 33 5 36 10 10 16 95 13 95 -4z m2254 -242
c-49 -36 -102 -80 -118 -98 -26 -27 -38 -32 -93 -36 -104 -8 -74 -24 58 -31
67 -4 138 -11 158 -17 20 -6 61 -16 92 -22 50 -10 63 -18 119 -76 34 -35 61
-66 59 -68 -2 -2 -24 -8 -49 -14 -25 -6 -97 -24 -160 -41 -110 -29 -125 -30
-343 -32 -125 -1 -229 0 -232 3 -8 8 70 151 121 225 24 34 44 71 44 82 0 30
33 59 77 67 21 4 51 13 66 21 16 8 35 12 43 9 8 -3 56 14 107 38 160 74 164
74 51 -10z m-2307 50 c-3 -3 -12 -4 -19 -1 -8 3 -5 6 6 6 11 1 17 -2 13 -5z
m-57 -39 c0 -7 11 -16 24 -19 16 -4 23 -12 21 -23 -13 -62 -17 -74 -28 -72
-26 3 -37 -2 -37 -16 0 -9 9 -15 25 -15 23 0 25 -3 19 -27 -7 -25 -16 -40 -35
-54 -9 -7 -39 28 -39 45 0 9 5 16 11 16 8 0 8 4 0 14 -8 10 -9 16 -1 21 6 3 8
10 5 15 -3 4 2 10 10 14 20 7 19 36 0 36 -13 0 -14 4 -5 20 6 11 8 25 5 30 -3
6 -1 10 5 10 7 0 9 7 6 16 -3 8 -2 12 4 9 6 -3 10 -12 10 -20z m-73 -287 c-3
-8 -6 -5 -6 6 -1 11 2 17 5 13 3 -3 4 -12 1 -19z m53 -18 c1 10 3 11 7 2 2 -6
9 -10 14 -6 10 6 11 -2 3 -32 -8 -29 -36 -21 -52 15 -7 16 -9 37 -5 47 6 16 8
15 19 -11 7 -17 14 -23 14 -15z m-30 -76 c0 -8 9 -14 20 -14 15 0 20 -7 20
-25 0 -32 -39 -36 -47 -5 -3 11 -14 20 -24 20 -18 0 -27 29 -13 42 10 10 44
-4 44 -18z m117 10 c-3 -3 -12 -4 -19 -1 -8 3 -5 6 6 6 11 1 17 -2 13 -5z
m-132 -84 c3 -5 4 -14 1 -19 -9 -13 -46 -1 -46 15 0 16 36 19 45 4z m45 -45
c0 -8 -9 -15 -20 -15 -11 0 -20 7 -20 15 0 8 9 15 20 15 11 0 20 -7 20 -15z
m1896 -41 c21 -49 13 -51 -13 -3 -12 21 -17 39 -12 39 6 0 17 -16 25 -36z
m-1946 6 c0 -14 7 -20 21 -20 14 0 19 -5 17 -17 -2 -14 -15 -19 -57 -21 l-53
-3 7 33 c10 45 13 48 41 48 17 0 24 -5 24 -20z m2905 -258 c-2 -2 -19 1 -38 7
-37 12 -47 37 -47 105 1 29 3 27 45 -39 24 -38 42 -71 40 -73z m-1449 -303
c-3 -16 -13 -38 -22 -47 -15 -15 -16 -14 -9 8 15 48 25 70 31 70 4 0 4 -14 0
-31z m34 9 c0 -16 -3 -19 -11 -11 -6 6 -8 16 -5 22 11 17 16 13 16 -11z
m-1456 -94 c25 -9 19 -24 -9 -24 -14 0 -25 -4 -25 -10 0 -5 -7 -10 -15 -10
-18 0 -18 5 -5 31 11 20 27 23 54 13z m6 -64 c0 -5 -12 -10 -26 -10 -14 0 -23
-4 -19 -10 3 -5 -3 -10 -14 -10 -20 0 -28 19 -14 33 10 11 73 8 73 -3z m2783
-69 c15 -8 27 -19 28 -25 1 -26 8 -70 19 -122 7 -31 9 -58 6 -62 -7 -6 -103
23 -150 46 l-28 14 21 22 c12 12 21 26 21 30 0 4 9 17 20 29 12 12 20 33 19
47 -2 35 0 42 9 38 4 -2 19 -10 35 -17z m-310 -42 c20 -7 36 -16 34 -19 -5 -9
-114 -233 -172 -355 l-58 -120 -8 42 c-6 32 -3 55 11 94 11 29 23 55 27 58 5
3 9 14 11 25 2 10 20 53 41 95 54 107 58 128 26 143 -14 6 -25 14 -25 17 0 10
54 41 65 37 6 -2 27 -9 48 -17z m166 -240 c34 -12 37 -19 19 -37 -9 -9 -20 -6
-50 10 -21 12 -38 25 -38 30 0 11 31 10 69 -3z m-1479 -65 c0 -18 -4 -17 -40
1 -35 18 -36 23 -12 41 15 11 19 10 35 -7 9 -12 17 -27 17 -35z m144 -19 c10
-101 17 -112 73 -121 26 -3 68 -17 93 -29 25 -12 80 -35 123 -51 82 -30 102
-51 40 -40 -21 3 -90 13 -153 23 -113 16 -116 18 -177 66 -66 51 -78 70 -40
65 21 -3 22 0 22 79 0 44 3 79 6 77 3 -2 9 -33 13 -69z m1464 21 c23 -18 61
-38 86 -45 25 -6 46 -15 46 -19 0 -5 -16 -24 -36 -43 -43 -41 -95 -114 -98
-137 -3 -23 -96 -73 -121 -66 -11 4 -28 13 -37 22 -23 19 -48 1 -48 -35 0 -37
-17 -19 -56 59 -36 71 -36 71 -18 104 15 28 22 32 46 27 15 -3 28 -1 28 4 0
16 65 110 95 136 40 35 65 34 113 -7z m-1236 -5 c-9 -16 -18 -28 -21 -26 -4 5
27 55 34 55 2 0 -4 -13 -13 -29z m1678 -28 c0 -13 -3 -13 -15 -3 -8 7 -12 16
-9 21 8 13 24 1 24 -18z m-2076 -43 c-14 -33 -15 -49 -7 -71 6 -15 8 -48 6
-72 -6 -50 -16 -57 -87 -57 -44 0 -43 -7 -4 123 17 58 27 73 61 98 22 16 42
27 44 25 2 -2 -4 -23 -13 -46z m1051 20 c3 -6 -1 -7 -9 -4 -18 7 -21 14 -7 14
6 0 13 -4 16 -10z m1294 -7 c0 -5 -4 -17 -9 -28 -8 -18 -9 -17 -9 8 -1 15 4
27 9 27 6 0 10 -3 9 -7z m-1230 -29 c14 -12 -19 -1 -35 12 -18 14 -18 14 6 3
14 -6 27 -13 29 -15z m935 10 c11 -4 16 -19 16 -50 0 -24 -4 -44 -8 -44 -18 0
-32 26 -32 62 0 41 0 41 24 32z m-84 -96 c0 -5 -8 -4 -17 1 -10 5 -49 22 -88
37 -83 33 -79 30 -71 43 7 11 176 -67 176 -81z m59 -32 c10 -12 8 -17 -7 -25
-18 -10 -47 -65 -43 -83 0 -5 -11 -8 -25 -8 -21 0 -25 -4 -21 -20 3 -11 2 -20
-3 -20 -13 0 -20 59 -9 88 14 36 58 82 80 82 9 0 22 -6 28 -14z m-2974 -46
c-3 -5 -16 -10 -28 -10 -18 0 -19 2 -7 10 20 13 43 13 35 0z m2285 -10 c6 -11
8 -20 4 -20 -4 0 3 -11 16 -25 13 -14 21 -27 18 -30 -3 -3 -60 -23 -126 -43
-67 -21 -125 -41 -129 -46 -10 -10 155 10 255 30 12 2 22 1 22 -4 0 -10 -114
-67 -152 -76 -15 -3 -99 -38 -187 -76 -88 -39 -166 -70 -175 -70 -10 0 -13 7
-11 21 5 22 -9 54 -32 77 -9 9 -24 11 -46 7 -64 -14 -174 -55 -239 -91 -16 -9
-29 -11 -33 -5 -7 13 4 61 19 80 9 12 8 13 -4 6 -12 -7 -13 -6 -3 7 7 8 10 17
8 20 -3 3 9 16 27 30 72 54 124 77 213 92 204 34 352 56 382 56 47 0 83 17 83
38 0 37 72 55 90 22z m814 3 c9 -22 -10 -41 -25 -26 -13 13 -5 43 10 43 5 0
12 -8 15 -17z m179 -21 c3 -15 5 -28 4 -28 -1 -1 -12 -5 -24 -8 -17 -6 -23 -3
-23 9 0 9 4 14 9 10 5 -3 12 -1 15 4 4 5 2 12 -4 16 -15 10 -12 35 4 29 8 -3
16 -17 19 -32z m-2374 -51 c-6 -18 -14 -30 -17 -27 -2 3 1 19 8 36 7 17 14 29
16 27 2 -2 -1 -18 -7 -36z m-1676 -6 c-19 -39 -38 -48 -27 -12 8 26 23 47 35
47 5 0 1 -16 -8 -35z m4054 -38 c3 -4 1 -7 -5 -7 -7 0 -12 -7 -12 -15 0 -9 -7
-18 -15 -21 -21 -8 -27 -37 -15 -69 9 -23 8 -26 -3 -17 -7 6 -22 9 -34 6 -16
-4 -22 0 -27 19 -7 29 17 92 39 104 17 10 62 10 72 0z m-2412 -96 c-5 -34 -2
-67 9 -106 12 -41 14 -60 6 -75 -18 -34 -27 -23 -35 43 -14 117 -14 142 -3
165 19 38 30 25 23 -27z m-910 29 c-3 -5 -12 -7 -20 -3 -21 7 -19 13 6 13 11
0 18 -4 14 -10z m2925 -10 c0 -5 -3 -10 -7 -11 -5 0 -17 -2 -27 -4 -33 -6 -43
9 -11 16 45 10 45 10 45 -1z m-2885 -52 c-9 -23 -37 -71 -61 -106 -50 -71 -53
-83 -22 -77 15 3 18 1 11 -6 -5 -5 -29 -12 -51 -14 -33 -3 -40 -1 -35 10 6 18
-10 19 -37 3 -35 -22 -33 1 3 41 20 22 48 58 62 81 14 22 32 40 41 40 13 0 12
-5 -5 -29 -24 -33 -27 -51 -8 -51 17 0 47 40 81 109 32 62 46 61 21 -1z m2880
-88 c3 -25 11 -64 17 -87 5 -23 8 -47 5 -55 -3 -7 -6 -3 -6 9 -1 18 -6 22 -23
19 -21 -3 -24 -10 -30 -72 -3 -38 -4 -80 -1 -93 5 -19 3 -22 -8 -15 -8 5 -18
9 -24 9 -6 0 -8 17 -5 40 7 61 5 222 -4 305 l-8 75 40 -45 c31 -34 42 -56 47
-90z m-2045 91 c0 -6 -4 -13 -10 -16 -5 -3 -10 1 -10 9 0 9 5 16 10 16 6 0 10
-4 10 -9z m-1740 -56 c-26 -28 -40 -32 -40 -12 0 19 21 37 44 37 18 0 18 -1
-4 -25z m-472 -45 c-14 -22 -24 -19 -15 5 4 8 11 15 17 15 6 0 6 -7 -2 -20z
m4468 -37 c-8 -15 -15 -22 -16 -15 0 17 20 55 27 49 2 -3 -2 -18 -11 -34z
m131 -18 c-7 -16 -37 -21 -37 -5 0 10 32 31 39 25 2 -2 1 -11 -2 -20z m-38
-43 c36 -56 38 -73 13 -95 -22 -20 -32 -13 -32 20 0 14 -4 32 -9 41 -13 27
-21 82 -12 82 5 0 23 -22 40 -48z m180 -22 c0 -10 -3 -8 -9 5 -12 27 -12 43 0
25 5 -8 9 -22 9 -30z m-4450 21 c10 -7 8 -12 -10 -25 -28 -19 -49 -5 -29 19
14 17 20 18 39 6z m4531 -81 c0 -5 -14 -31 -31 -57 -30 -47 -32 -40 -6 35 10
29 37 46 37 22z m-3240 -20 c0 -5 -5 -10 -11 -10 -5 0 -7 5 -4 10 3 6 8 10 11
10 2 0 4 -4 4 -10z m93 -11 c-5 -5 -41 -23 -79 -38 -50 -20 -73 -35 -82 -55
-13 -26 -15 -26 -37 -12 -35 23 -75 21 -75 -4 0 -24 -15 -27 -24 -4 -14 36 -7
41 62 46 46 4 93 16 152 41 95 40 98 41 83 26z m-126 -5 c-3 -3 -12 -4 -19 -1
-8 3 -5 6 6 6 11 1 17 -2 13 -5z m1353 -10 c-8 -8 -40 -35 -73 -60 -42 -32
-58 -40 -55 -27 2 9 30 36 63 60 62 44 87 54 65 27z m-1453 -30 c-3 -3 -12 -4
-19 -1 -8 3 -5 6 6 6 11 1 17 -2 13 -5z m-1193 -41 c33 -15 36 -15 61 1 l27
18 -28 -49 c-15 -26 -31 -52 -35 -58 -3 -5 -25 -62 -47 -125 -33 -95 -43 -138
-52 -245 l-12 -130 -111 2 c-62 2 -134 6 -160 10 -48 8 -49 9 -73 67 l-24 60
37 40 c94 101 158 166 165 166 5 0 40 -21 78 -47 39 -25 72 -44 75 -42 4 5 25
268 25 322 0 32 21 36 74 10z m2463 -20 c-7 -21 -11 -55 -9 -76 3 -36 10 -43
155 -151 198 -147 221 -174 116 -137 -79 27 -210 93 -216 109 -10 25 7 25 62
-2 108 -51 91 -26 -52 74 -39 27 -78 53 -87 56 -26 10 -18 -16 14 -46 30 -28
40 -60 19 -60 -6 0 -67 32 -134 71 -106 61 -125 75 -130 101 -4 16 -4 32 -1
35 3 3 44 -17 91 -45 46 -28 87 -47 89 -43 3 4 15 34 27 67 20 53 42 83 61 84
4 0 2 -17 -5 -37z m-2584 10 l32 -18 -27 -3 c-36 -4 -77 16 -57 29 18 11 15
12 52 -8z m2262 -23 c17 -11 25 -20 18 -20 -19 0 -63 22 -63 32 0 13 13 10 45
-12z m-1076 -116 c10 -9 -56 -3 -69 7 -11 7 -4 8 25 3 22 -4 42 -8 44 -10z
m-1321 -22 c-66 -90 -82 -103 -69 -54 5 15 13 26 18 25 6 -1 21 9 33 22 27 29
37 33 18 7z m2553 -23 c27 -12 49 -26 49 -31 0 -6 -7 -7 -15 -4 -8 3 -21 8
-27 11 -8 3 -27 -27 -52 -83 -22 -48 -41 -89 -42 -91 -4 -5 -74 29 -74 36 0 3
6 3 14 0 10 -4 24 19 48 76 19 45 31 84 27 85 -15 6 -10 22 7 22 8 0 38 -10
65 -21z m-331 -3 c0 -3 -4 -8 -10 -11 -5 -3 -10 -1 -10 4 0 6 5 11 10 11 6 0
10 -2 10 -4z m355 -136 c-17 -33 -30 -38 -39 -14 -9 23 -7 31 3 15 7 -11 11
-9 20 8 7 11 16 21 22 21 5 0 3 -13 -6 -30z m-270 -59 c-3 -6 -11 -11 -16 -11
-5 0 -4 6 3 14 14 16 24 13 13 -3z m69 -5 c17 -12 47 -31 66 -41 19 -10 29
-20 23 -22 -15 -5 -133 64 -133 78 0 14 11 11 44 -15z m-854 -23 c0 -5 -19 -9
-43 -9 -30 -1 -36 1 -22 6 26 11 65 12 65 3z m57 -293 c-3 -17 -58 227 -56
250 0 8 14 -41 30 -110 16 -69 27 -132 26 -140z m3397 98 c9 -35 8 -38 -18
-38 -26 0 -41 31 -23 49 18 18 34 13 41 -11z m-3434 -32 c0 -17 -24 -38 -33
-29 -4 3 -7 13 -6 22 0 12 3 11 9 -4 8 -19 9 -19 9 3 1 23 21 32 21 8z m-5
-67 c-2 -12 -9 -27 -16 -35 -6 -8 -8 -25 -5 -40 5 -17 3 -23 -4 -19 -15 9 -12
47 6 83 18 37 25 41 19 11z m110 -298 c30 -144 55 -268 55 -274 0 -27 -12 6
-24 69 -8 38 -32 159 -55 268 -37 181 -47 240 -35 211 2 -5 29 -129 59 -274z
m1249 112 c21 -76 49 -166 61 -200 12 -35 21 -63 20 -63 -7 0 -96 122 -112
155 -25 49 -47 188 -37 228 13 43 32 9 68 -120z m-1357 -25 c-3 -8 -6 -5 -6 6
-1 11 2 17 5 13 3 -3 4 -12 1 -19z m3309 -479 c-4 -36 -10 -43 -31 -35 -12 4
-14 12 -9 28 16 54 46 59 40 7z m264 -58 c-37 -54 -46 -56 -95 -30 -25 13 -45
27 -45 31 0 5 -9 8 -19 8 -11 0 -23 5 -26 10 -4 7 29 10 99 9 l106 -1 -20 -27z
m-333 -132 c9 -9 5 -21 -18 -48 -16 -19 -29 -42 -29 -50 0 -10 -8 -12 -32 -7
-17 3 -33 8 -36 11 -6 6 81 105 94 105 5 0 15 -5 21 -11z m-122 -391 c-10 -46
-41 -103 -48 -91 -9 14 19 104 35 114 20 13 20 12 13 -23z m-1194 -27 c11 -27
-6 -19 -22 11 -8 16 -8 19 2 16 6 -2 16 -14 20 -27z m-1001 -279 c-6 -39 -18
-79 -26 -89 -14 -16 -15 -15 -9 22 7 51 36 147 42 141 3 -3 0 -36 -7 -74z
m1277 -119 c-2 -16 -4 -3 -4 27 0 30 2 43 4 28 2 -16 2 -40 0 -55z m-208 -92
c12 -72 8 -94 -7 -35 -18 70 -24 120 -14 109 5 -5 15 -39 21 -74z"/>
<path d="M3770 5226 c0 -2 7 -7 16 -10 8 -3 12 -2 9 4 -6 10 -25 14 -25 6z"/>
<path d="M5727 7844 c-27 -14 -53 -21 -60 -17 -7 4 -16 8 -22 9 -5 1 -19 6
-29 10 -13 5 -17 4 -12 -4 3 -6 2 -13 -3 -16 -5 -3 -7 -15 -4 -25 7 -29 -20
-61 -84 -99 -32 -19 -49 -31 -38 -28 20 6 20 6 -1 -11 -11 -10 -31 -26 -45
-36 -13 -10 3 -4 37 13 45 23 68 29 88 24 21 -5 26 -11 23 -25 -4 -15 0 -18
16 -15 12 3 27 5 34 5 6 1 26 27 43 59 18 31 50 83 72 116 21 32 37 60 36 61
-2 2 -25 -8 -51 -21z"/>
<path d="M5261 7650 c-41 -26 -45 -33 -47 -71 -2 -30 1 -38 8 -28 7 11 8 9 4
-7 -4 -11 0 -28 7 -38 12 -16 17 -14 63 28 86 81 102 92 90 60 -3 -9 -2 -12 5
-9 5 4 8 12 6 18 -2 7 3 21 12 31 11 13 -6 7 -51 -18 -68 -37 -82 -38 -52 -5
15 16 14 17 -7 12 l-22 -6 21 21 c22 22 29 43 15 41 -5 0 -28 -13 -52 -29z"/>
<path d="M6600 7625 c-10 -12 -10 -21 -1 -42 10 -22 14 -24 22 -12 9 12 10 12
8 -1 -4 -25 12 -68 27 -74 20 -8 18 32 -5 80 -11 21 -17 43 -14 48 4 5 1 6 -6
2 -6 -4 -8 -12 -5 -18 5 -7 2 -8 -5 -4 -7 5 -10 14 -7 22 7 18 2 18 -14 -1z
m57 -107 c-3 -8 -6 -5 -6 6 -1 11 2 17 5 13 3 -3 4 -12 1 -19z"/>
<path d="M6347 7599 c-9 -6 -15 -14 -13 -18 3 -4 -8 -22 -24 -41 -16 -19 -27
-37 -24 -42 3 -4 0 -8 -5 -8 -15 0 -51 -37 -43 -44 3 -3 -1 -6 -9 -6 -8 0 -26
-13 -41 -30 -30 -34 -26 -36 25 -15 20 8 49 34 69 62 37 52 90 144 86 149 -2
1 -11 -2 -21 -7z"/>
<path d="M5190 7523 c0 -23 17 -49 26 -41 9 10 -4 58 -16 58 -6 0 -10 -8 -10
-17z"/>
<path d="M5342 7500 c-12 -10 -28 -21 -35 -24 -8 -3 -3 -13 15 -30 16 -14 25
-27 20 -29 -4 -3 -41 1 -82 8 -83 14 -84 15 13 -52 32 -22 49 -42 55 -65 10
-39 34 -43 43 -8 28 104 34 115 59 112 l24 -3 -25 28 c-14 16 -31 40 -39 56
-16 32 -18 32 -48 7z"/>
<path d="M5870 7457 c-19 -10 -26 -22 -28 -51 l-3 -39 26 31 c31 37 41 40 48
11 3 -12 10 -18 15 -15 5 3 16 -1 23 -10 10 -13 10 -17 0 -24 -9 -5 -10 -10
-2 -14 6 -4 11 -3 11 2 0 5 9 12 20 15 13 3 20 14 20 29 0 31 -18 48 -49 48
-13 0 -32 7 -40 15 -14 11 -21 12 -41 2z"/>
<path d="M3686 7381 c-4 -7 -5 -15 -2 -18 9 -9 19 4 14 18 -4 11 -6 11 -12 0z"/>
<path d="M3840 7379 c0 -5 5 -7 10 -4 6 3 10 8 10 11 0 2 -4 4 -10 4 -5 0 -10
-5 -10 -11z"/>
<path d="M3781 7364 c0 -11 3 -14 6 -6 3 7 2 16 -1 19 -3 4 -6 -2 -5 -13z"/>
<path d="M3627 7363 c-4 -3 -7 -13 -7 -22 1 -13 3 -13 11 2 11 19 8 33 -4 20z"/>
<path d="M3716 7345 c-3 -8 -1 -15 3 -15 5 0 11 7 15 15 3 8 1 15 -3 15 -5 0
-11 -7 -15 -15z"/>
<path d="M3825 7350 c-3 -5 -1 -10 4 -10 6 0 11 5 11 10 0 6 -2 10 -4 10 -3 0
-8 -4 -11 -10z"/>
<path d="M6530 7337 c0 -9 4 -18 9 -21 5 -3 11 -17 13 -30 4 -19 1 -23 -11
-18 -12 4 -11 0 4 -18 l20 -24 -31 22 c-17 12 -53 26 -80 32 -26 6 -54 16 -61
22 -21 17 2 -36 32 -76 14 -18 25 -38 25 -43 0 -6 14 -17 32 -26 30 -15 33
-14 50 5 23 27 23 36 0 15 -26 -24 -39 -21 -17 3 23 25 32 25 46 -1 6 -12 7
-19 1 -15 -5 3 -15 0 -21 -8 -9 -11 -6 -15 13 -18 14 -3 23 -1 20 3 -3 5 1 9
9 9 17 0 47 58 47 92 0 25 -44 98 -60 98 -4 0 -15 3 -24 6 -10 4 -16 1 -16 -9z
m-30 -121 c0 -17 -14 -29 -23 -20 -8 8 3 34 14 34 5 0 9 -6 9 -14z"/>
<path d="M3550 7330 c0 -5 5 -10 10 -10 6 0 10 5 10 10 0 6 -4 10 -10 10 -5 0
-10 -4 -10 -10z"/>
<path d="M3755 7331 c-3 -5 -1 -12 5 -16 5 -3 10 1 10 9 0 18 -6 21 -15 7z"/>
<path d="M3496 7305 c-3 -8 -1 -15 4 -15 6 0 10 7 10 15 0 8 -2 15 -4 15 -2 0
-6 -7 -10 -15z"/>
<path d="M3596 7311 c-4 -7 -5 -15 -2 -18 9 -9 19 4 14 18 -4 11 -6 11 -12 0z"/>
<path d="M3790 7310 c0 -5 5 -10 11 -10 5 0 7 5 4 10 -3 6 -8 10 -11 10 -2 0
-4 -4 -4 -10z"/>
<path d="M3350 7236 c0 -2 7 -9 15 -16 9 -7 15 -8 15 -2 0 5 -7 12 -15 16 -8
3 -15 4 -15 2z"/>
<path d="M3830 7169 c0 -5 5 -7 10 -4 6 3 10 8 10 11 0 2 -4 4 -10 4 -5 0 -10
-5 -10 -11z"/>
<path d="M3770 7150 c0 -5 5 -10 11 -10 5 0 7 5 4 10 -3 6 -8 10 -11 10 -2 0
-4 -4 -4 -10z"/>
<path d="M3870 7141 c0 -25 6 -27 13 -6 4 8 2 17 -3 20 -6 4 -10 -3 -10 -14z"/>
<path d="M5392 7125 c-17 -14 -35 -25 -42 -25 -6 0 -8 -4 -5 -10 3 -5 -2 -10
-11 -10 -13 0 -15 -3 -7 -11 8 -8 25 0 62 26 48 34 63 55 42 55 -5 0 -23 -11
-39 -25z"/>
<path d="M6983 7038 c13 -24 30 -54 36 -66 7 -13 15 -21 18 -18 7 7 -59 126
-70 126 -5 0 2 -19 16 -42z"/>
<path d="M5280 7039 c-14 -15 -30 -28 -37 -28 -15 -1 -28 -21 -14 -21 6 0 20
9 31 20 11 11 22 20 25 20 3 0 9 0 14 0 11 0 22 28 13 33 -4 2 -18 -8 -32 -24z"/>
<path d="M8704 6970 c2 -19 9 -55 16 -79 6 -25 10 -55 8 -68 l-3 -23 -38 26
c-30 20 -46 25 -72 20 -33 -7 -34 -8 -39 -69 -8 -96 -28 -308 -33 -349 -3 -25
-1 -38 6 -38 7 0 11 6 10 13 -4 21 38 368 48 393 6 16 16 16 106 -2 26 -5 27
-7 27 -75 0 -38 4 -69 10 -69 21 0 -14 296 -40 338 -9 13 -10 9 -6 -18z"/>
<path d="M2870 6975 c0 -9 6 -12 15 -9 8 4 15 10 15 15 0 5 -7 9 -15 9 -8 0
-15 -7 -15 -15z"/>
<path d="M6550 6967 c0 -8 7 -28 15 -43 8 -16 15 -24 15 -17 0 6 15 17 34 23
48 15 62 34 28 37 -15 1 -42 5 -59 8 -26 6 -33 4 -33 -8z"/>
<path d="M2850 6935 c0 -9 6 -12 15 -9 8 4 12 10 9 15 -8 14 -24 10 -24 -6z"/>
<path d="M2830 6901 c0 -17 18 -21 24 -6 3 9 0 15 -9 15 -8 0 -15 -4 -15 -9z"/>
<path d="M4240 6899 c0 -5 -4 -7 -10 -4 -5 3 -10 -2 -10 -12 0 -10 -8 -35 -19
-55 -10 -20 -21 -56 -24 -80 l-7 -43 50 54 c28 30 50 60 50 67 0 7 11 21 25
32 21 17 23 21 10 32 -8 6 -19 9 -24 6 -5 -4 -12 -2 -16 4 -8 13 -25 13 -25
-1z"/>
<path d="M6470 6862 c0 -14 36 -38 49 -34 8 3 11 0 7 -7 -11 -17 30 -13 48 5
17 17 22 39 7 29 -5 -3 -12 -1 -16 5 -7 12 -95 14 -95 2z"/>
<path d="M8709 6583 c-19 -27 -61 -88 -94 -136 -39 -57 -64 -86 -73 -82 -8 3
-12 0 -9 -7 2 -7 -2 -25 -10 -41 -12 -25 -12 -28 4 -34 45 -16 100 -64 118
-103 18 -36 23 -40 47 -36 39 8 45 -12 14 -41 -30 -28 -46 -62 -46 -99 0 -19
-5 -24 -25 -24 -20 0 -25 5 -25 24 0 15 7 26 18 29 13 4 11 5 -5 6 -21 1 -23
-3 -23 -49 0 -52 16 -96 44 -119 25 -21 203 14 218 42 15 29 17 133 1 130 -18
-4 -63 61 -53 77 5 8 7 18 4 22 -3 4 2 21 11 37 11 22 25 32 50 37 39 7 40 11
24 97 -9 53 -113 275 -143 305 -9 10 -19 2 -47 -35z m-4 -170 c-4 -32 -11 -78
-16 -102 -7 -30 -6 -48 1 -55 7 -7 10 -6 10 5 0 7 9 25 19 38 l19 25 16 -39
c14 -32 14 -45 5 -67 -14 -35 -23 -35 -38 -2 -6 15 -14 24 -17 21 -3 -3 0 -15
6 -27 8 -16 9 -20 1 -15 -6 3 -23 29 -37 57 l-26 51 28 84 c15 45 29 83 31 83
3 0 1 -26 -2 -57z m99 -358 c42 -64 -1 -153 -67 -140 -42 9 -67 41 -67 88 0
32 5 40 33 57 44 27 81 26 101 -5z"/>
<path d="M4690 6591 c0 -5 7 -12 16 -15 14 -5 15 -4 4 9 -14 17 -20 19 -20 6z"/>
<path d="M4640 6554 c0 -8 5 -12 10 -9 6 3 10 10 10 16 0 5 -4 9 -10 9 -5 0
-10 -7 -10 -16z"/>
<path d="M3390 6556 c0 -12 24 -56 31 -56 12 0 -6 53 -19 58 -7 2 -12 1 -12
-2z"/>
<path d="M4730 6553 c0 -19 11 -43 21 -43 13 0 11 14 -6 36 -8 10 -15 14 -15
7z"/>
<path d="M4680 6540 c0 -5 -6 -10 -14 -10 -12 0 -12 -5 -3 -30 14 -36 32 -40
23 -6 -3 14 -2 28 4 31 13 8 13 25 0 25 -5 0 -10 -4 -10 -10z"/>
<path d="M4711 6511 c-9 -6 -6 -10 13 -15 14 -3 26 -11 26 -16 0 -5 7 -7 16
-3 12 4 15 2 12 -8 -3 -8 -13 -13 -23 -11 -10 2 -22 -2 -27 -10 -6 -9 -7 -6
-3 10 3 12 2 22 -2 22 -11 0 -42 -67 -35 -75 3 -2 5 -20 6 -40 1 -34 -11 -48
-44 -50 -30 -2 -85 -18 -98 -28 -10 -8 -27 4 -71 51 -32 34 -63 62 -69 62 -7
0 -4 -8 6 -18 61 -64 93 -104 88 -109 -3 -4 -36 24 -72 62 -48 50 -62 70 -52
76 10 7 9 9 -5 9 -10 0 -20 -7 -23 -15 -9 -22 -27 -18 -21 4 6 23 -15 35 -32
18 -8 -8 -7 -15 4 -27 12 -14 13 -23 4 -49 -10 -28 -9 -37 8 -59 28 -38 40
-37 49 4 l9 36 36 -33 c20 -19 42 -49 50 -66 8 -18 20 -33 26 -33 7 0 13 -4
13 -10 0 -5 7 -10 15 -10 8 0 15 -6 15 -13 0 -12 56 -67 69 -67 3 0 23 -16 45
-36 21 -19 49 -42 62 -51 16 -10 24 -25 24 -44 0 -37 -17 -38 -23 -1 -4 25 -4
25 -6 -5 0 -18 4 -33 9 -33 6 0 10 -4 10 -10 0 -5 -6 -10 -13 -10 -15 0 -44
-76 -34 -87 4 -3 7 2 7 12 0 12 3 15 9 9 5 -5 7 -24 4 -42 -5 -28 -7 -31 -21
-20 -12 10 -14 10 -8 1 11 -19 -29 -16 -49 3 -9 9 -25 14 -35 11 -11 -3 -20
-1 -20 4 0 5 -7 9 -16 9 -11 0 -14 5 -10 16 4 12 1 14 -13 9 -13 -4 -24 1 -33
13 -10 15 -65 42 -84 42 -15 0 4 -28 48 -70 28 -27 49 -53 45 -56 -4 -4 -16 1
-27 11 -13 12 -27 15 -45 11 -24 -6 -27 -26 -4 -26 9 0 77 -28 125 -51 21 -11
67 -53 96 -88 14 -16 16 -34 13 -83 -4 -61 -4 -61 5 -18 10 44 33 171 65 360
9 52 19 107 22 123 3 17 0 27 -7 27 -8 0 -11 23 -10 73 3 94 1 107 -11 79 -5
-13 -6 -29 -2 -35 4 -7 -7 -1 -24 13 -17 14 -36 35 -42 48 -6 13 -15 21 -20
18 -5 -3 -11 3 -14 14 -3 11 -15 24 -28 28 -13 5 -18 12 -12 15 12 8 73 -20
73 -34 0 -19 19 -8 22 14 2 12 6 20 9 17 3 -3 13 1 22 8 13 11 16 10 20 -10 3
-13 5 14 4 58 -2 78 -1 81 18 74 17 -6 20 -18 23 -91 3 -97 17 -124 27 -53 11
75 44 234 52 247 3 7 -2 4 -13 -5 -21 -18 -91 -18 -103 0 -4 6 -12 7 -20 3z"/>
<path d="M3340 6476 c0 -14 21 -58 26 -54 8 8 -7 58 -17 58 -5 0 -9 -2 -9 -4z"/>
<path d="M4340 6465 c0 -8 4 -15 10 -15 5 0 7 7 4 15 -4 8 -8 15 -10 15 -2 0
-4 -7 -4 -15z"/>
<path d="M6055 6227 c-10 -16 -13 -27 -7 -23 6 3 14 1 18 -6 6 -9 10 -5 14 12
4 17 15 27 35 31 17 4 23 8 15 9 -50 8 -58 6 -75 -23z"/>
<path d="M6152 6220 c0 -14 2 -19 5 -12 2 6 2 18 0 25 -3 6 -5 1 -5 -13z"/>
<path d="M4200 6195 c0 -11 24 -55 30 -55 4 0 13 -13 20 -30 7 -16 16 -30 20
-30 4 0 13 -15 21 -32 22 -57 53 -98 73 -98 14 0 17 5 11 23 -4 12 -10 40 -15
62 -4 22 -8 33 -9 25 -1 -13 -3 -13 -10 -1 -6 9 -6 22 0 33 8 14 6 18 -10 18
-10 0 -40 20 -67 45 -42 40 -64 54 -64 40z"/>
<path d="M1428 6183 c7 -3 16 -2 19 1 4 3 -2 6 -13 5 -11 0 -14 -3 -6 -6z"/>
<path d="M4410 6180 c-13 -9 -13 -10 0 -10 8 0 22 5 30 10 13 9 13 10 0 10 -8
0 -22 -5 -30 -10z"/>
<path d="M6125 6180 c-19 -8 -19 -9 3 -9 12 -1 22 4 22 9 0 6 -1 10 -2 9 -2 0
-12 -4 -23 -9z"/>
<path d="M4120 6150 c0 -5 7 -10 15 -10 8 0 15 5 15 10 0 6 -7 10 -15 10 -8 0
-15 -4 -15 -10z"/>
<path d="M4175 6150 c3 -5 8 -10 11 -10 2 0 4 5 4 10 0 6 -5 10 -11 10 -5 0
-7 -4 -4 -10z"/>
<path d="M8655 6109 c-4 -6 -5 -12 -2 -15 2 -3 7 2 10 11 7 17 1 20 -8 4z"/>
<path d="M4380 6100 c-9 -6 -10 -10 -3 -10 6 0 15 5 18 10 8 12 4 12 -15 0z"/>
<path d="M4266 6037 c3 -10 9 -15 12 -12 3 3 0 11 -7 18 -10 9 -11 8 -5 -6z"/>
<path d="M4376 6025 c-3 -8 -1 -15 4 -15 6 0 10 7 10 15 0 8 -2 15 -4 15 -2 0
-6 -7 -10 -15z"/>
<path d="M4550 5850 c0 -5 4 -10 9 -10 6 0 13 5 16 10 3 6 -1 10 -9 10 -9 0
-16 -4 -16 -10z"/>
<path d="M4255 5810 c-3 -5 -1 -10 4 -10 6 0 11 5 11 10 0 6 -2 10 -4 10 -3 0
-8 -4 -11 -10z"/>
<path d="M5472 5737 c-7 -43 -12 -89 -12 -103 0 -31 -21 -72 -76 -151 -41 -58
-54 -86 -36 -81 4 1 24 -4 44 -11 42 -14 58 -9 58 19 0 11 20 38 44 61 25 22
43 46 40 52 -2 7 -15 75 -27 152 l-23 140 -12 -78z"/>
<path d="M4340 5791 c0 -5 7 -12 16 -15 24 -9 27 -7 10 9 -17 17 -26 19 -26 6z"/>
<path d="M8743 5772 c-58 -29 -69 -44 -48 -66 18 -17 33 -72 17 -62 -16 10
-24 -11 -17 -46 5 -20 10 -26 15 -18 6 10 8 10 12 -1 3 -10 13 -10 50 0 46 13
46 13 50 61 5 78 -3 160 -15 159 -7 0 -35 -12 -64 -27z"/>
<path d="M4127 5706 c-9 -7 -17 -19 -17 -27 1 -11 3 -11 13 2 7 9 19 18 27 21
7 2 10 7 4 10 -5 4 -17 1 -27 -6z"/>
<path d="M4121 5618 c-1 -15 4 -30 9 -33 12 -7 12 12 0 40 -8 18 -9 17 -9 -7z"/>
<path d="M4167 5540 c-3 -11 -1 -20 4 -20 5 0 9 9 9 20 0 11 -2 20 -4 20 -2 0
-6 -9 -9 -20z"/>
<path d="M390 5530 c-6 -11 -8 -20 -6 -20 3 0 10 9 16 20 6 11 8 20 6 20 -3 0
-10 -9 -16 -20z"/>
<path d="M9650 5521 c-8 -4 -94 -12 -190 -15 -395 -16 -794 -77 -944 -146 -22
-10 -60 -24 -83 -30 -24 -6 -43 -15 -43 -20 0 -6 -11 -10 -24 -10 -31 0 -86
-20 -86 -31 0 -5 -11 -9 -24 -9 -13 0 -29 -7 -36 -15 -7 -8 -19 -15 -26 -15
-8 0 -14 -4 -14 -10 0 -14 17 -12 48 4 52 28 166 49 282 51 63 1 147 5 185 9
470 46 798 45 988 -4 40 -10 74 -14 77 -10 3 4 12 1 20 -8 13 -14 12 -15 -5
-8 -16 5 -15 2 5 -17 31 -29 59 -105 43 -115 -17 -11 -74 -122 -67 -133 3 -5
2 -8 -3 -7 -9 3 -53 -44 -82 -87 -20 -29 103 99 133 138 17 22 23 40 19 55 -3
13 -1 22 6 22 6 0 8 -7 4 -17 -11 -28 11 -6 31 31 18 34 18 37 2 49 -11 8 -15
19 -10 32 7 18 8 18 15 -1 6 -15 8 -12 8 12 1 18 -6 45 -14 60 -13 26 -13 29
1 32 9 2 13 10 10 19 -3 8 -6 21 -6 29 0 8 -6 14 -13 14 -7 0 -18 14 -24 30
-11 28 -43 43 -43 19 0 -5 -4 -7 -10 -4 -15 9 -12 25 5 25 25 0 17 17 -24 49
-42 33 -87 47 -111 32z m180 -175 c0 -11 -19 -15 -25 -6 -3 5 1 10 9 10 9 0
16 -2 16 -4z m4 -116 c-6 -6 -10 -3 -10 10 0 13 4 16 10 10 7 -7 7 -13 0 -20z
m16 -75 c0 -8 -2 -15 -4 -15 -2 0 -6 7 -10 15 -3 8 -1 15 4 15 6 0 10 -7 10
-15z m-49 -108 c-10 -9 -11 -8 -5 6 3 10 9 15 12 12 3 -3 0 -11 -7 -18z"/>
<path d="M350 5459 c-7 -11 -10 -23 -7 -25 2 -2 9 7 15 21 14 30 7 33 -8 4z"/>
<path d="M4641 5444 c0 -11 3 -14 6 -6 3 7 2 16 -1 19 -3 4 -6 -2 -5 -13z"/>
<path d="M7515 5338 c-60 -27 -179 -83 -263 -124 -85 -41 -157 -74 -160 -74
-4 0 -61 -22 -127 -49 l-120 -49 -3 -41 c-2 -22 1 -41 5 -41 4 0 64 31 133 68
69 37 208 112 310 167 102 54 216 116 253 137 38 21 73 38 77 38 5 0 12 5 15
10 10 16 -3 11 -120 -42z"/>
<path d="M5356 5312 c-3 -5 1 -9 9 -9 8 0 12 4 9 9 -3 4 -7 8 -9 8 -2 0 -6 -4
-9 -8z"/>
<path d="M4037 5213 c4 -9 -5 -13 -26 -13 -17 0 -31 -5 -31 -11 0 -6 7 -8 18
-4 14 5 15 4 4 -7 -10 -10 -17 -10 -32 0 -22 14 -60 16 -60 4 0 -8 77 -35 138
-47 35 -7 36 -6 47 58 l6 37 -34 -2 c-23 -2 -33 -7 -30 -15z"/>
<path d="M3892 5190 c0 -14 2 -19 5 -12 2 6 2 18 0 25 -3 6 -5 1 -5 -13z"/>
<path d="M8064 5185 c-17 -13 -16 -14 14 -4 33 11 41 19 19 19 -7 0 -22 -7
-33 -15z"/>
<path d="M8995 5015 c-22 -13 -36 -25 -31 -25 10 0 76 39 76 46 0 7 -3 5 -45
-21z"/>
<path d="M8910 4970 c-8 -5 -10 -10 -5 -10 6 0 17 5 25 10 8 5 11 10 5 10 -5
0 -17 -5 -25 -10z"/>
<path d="M8359 4947 c-19 -13 -33 -29 -31 -35 1 -7 -4 -11 -10 -9 -7 1 -13 -5
-13 -13 0 -10 8 -14 25 -12 22 2 23 1 7 -8 -9 -6 -22 -8 -27 -5 -6 3 -19 -10
-31 -29 -12 -20 -25 -36 -29 -36 -4 0 -22 -29 -38 -65 -31 -66 -55 -85 -122
-99 -17 -3 -34 -20 -48 -44 -20 -37 -21 -42 -8 -80 8 -23 16 -68 18 -101 3
-56 5 -60 31 -65 21 -4 27 -11 27 -31 0 -21 -5 -25 -29 -25 -25 0 -28 3 -25
28 2 15 1 21 -2 15 -3 -7 -17 -13 -30 -13 -23 0 -24 3 -24 62 0 77 -27 178
-47 178 -9 0 -33 -10 -54 -22 -38 -21 -39 -21 -53 -3 -12 16 -12 11 -4 -41 13
-82 2 -165 -23 -171 -10 -3 -19 -10 -19 -17 0 -6 -7 -3 -15 8 -10 13 -11 25
-4 43 12 33 11 169 -2 216 -10 36 -12 38 -32 24 -26 -17 -34 -37 -13 -37 28 0
39 -39 34 -124 -6 -98 -20 -132 -59 -140 -25 -5 -29 -10 -29 -40 0 -18 6 -38
13 -44 7 -6 53 -13 102 -17 50 -3 110 -8 134 -10 36 -3 47 0 68 22 26 25 90
53 123 53 10 0 35 14 56 30 106 84 202 145 261 166 36 13 69 21 74 18 13 -8
97 26 103 41 2 7 19 16 35 20 20 4 42 21 58 43 15 20 40 52 55 70 15 18 28 41
28 51 0 10 14 36 31 57 17 22 35 47 41 58 10 18 9 18 -22 0 -18 -11 -44 -34
-59 -52 -14 -18 -50 -58 -79 -89 -34 -35 -50 -58 -43 -63 7 -4 2 -12 -14 -20
-22 -12 -30 -12 -54 3 -41 24 -71 23 -64 -3 6 -21 13 -23 -154 46 -60 24 -54
35 8 17 62 -18 120 -6 145 31 24 38 55 128 41 123 -56 -19 -218 -59 -223 -54
-4 3 5 20 20 37 16 19 26 44 26 62 0 17 10 46 21 65 18 29 19 37 8 44 -20 12
-22 12 -60 -14z"/>
<path d="M8042 4928 c-7 -7 -12 -17 -12 -23 0 -14 61 -50 79 -47 7 2 11 0 8
-5 -3 -4 13 -9 35 -10 46 -1 46 -1 -13 31 -24 13 -43 29 -41 35 1 6 -5 11 -13
11 -8 0 -15 5 -15 10 0 14 -13 13 -28 -2z"/>
<path d="M1637 4900 c6 -34 -2 -38 -28 -14 -17 15 -20 14 -48 -6 -42 -29 -51
-49 -58 -124 l-6 -64 56 -36 c104 -66 175 -39 211 81 21 70 18 112 -9 127 -11
6 -41 23 -66 38 -25 16 -49 28 -52 28 -4 0 -4 -13 0 -30z"/>
<path d="M8115 4900 c3 -5 11 -10 16 -10 6 0 7 5 4 10 -3 6 -11 10 -16 10 -6
0 -7 -4 -4 -10z"/>
<path d="M8030 4870 c0 -5 5 -10 10 -10 6 0 10 5 10 10 0 6 -4 10 -10 10 -5 0
-10 -4 -10 -10z"/>
<path d="M8010 4849 c0 -5 -6 -7 -12 -3 -7 4 -10 4 -6 -1 4 -4 24 -9 44 -10
35 -2 36 -2 13 11 -29 16 -39 17 -39 3z"/>
<path d="M7981 4825 c0 -5 4 -19 9 -30 7 -17 9 -17 9 -3 1 11 6 15 15 12 8 -3
17 0 21 6 11 17 -1 23 -23 11 -15 -8 -22 -8 -25 2 -3 6 -5 8 -6 2z"/>
<path d="M2937 4748 c-37 -40 -67 -74 -67 -75 0 -1 -23 -24 -52 -50 -89 -82
-338 -331 -338 -338 0 -3 26 13 58 36 132 96 346 219 382 219 6 0 -13 -20 -43
-45 -31 -25 -59 -54 -62 -66 -4 -11 -9 -18 -12 -15 -6 6 -55 -35 -143 -120
-73 -71 -82 -82 -75 -94 3 -6 1 -10 -6 -10 -6 0 -17 -7 -24 -16 -10 -14 -18
-11 -69 27 -52 39 -56 44 -40 56 25 18 9 16 -33 -4 l-36 -17 64 -57 c35 -31
61 -60 58 -64 -4 -3 -33 4 -65 15 -33 12 -90 30 -127 41 -61 17 -72 18 -110 5
-24 -8 -43 -21 -46 -31 -2 -14 1 -16 15 -10 31 12 76 9 132 -9 62 -21 158 -75
190 -108 32 -32 115 -148 110 -154 -3 -2 -26 25 -53 61 -33 46 -51 62 -59 56
-13 -11 -81 31 -137 85 -19 19 -38 32 -41 29 -2 -3 -18 -1 -34 5 -53 18 -153
28 -158 15 -2 -6 13 -16 36 -22 32 -9 38 -8 34 3 -3 8 1 14 9 14 8 0 15 -7 15
-15 0 -8 8 -22 18 -32 26 -25 37 -57 18 -50 -8 3 -20 -1 -26 -9 -11 -12 -6
-14 30 -14 31 0 53 -7 77 -26 38 -29 42 -50 11 -60 -13 -4 -33 -15 -46 -25
-13 -10 -37 -21 -55 -25 -49 -10 -83 -30 -187 -110 -67 -52 -96 -70 -98 -59
-4 18 -14 19 -28 5 -7 -7 -35 -5 -90 6 -70 14 -83 21 -116 56 -33 35 -38 47
-38 88 0 65 -41 171 -72 189 -47 27 -56 12 -52 -86 3 -48 1 -83 -3 -78 -4 6
-19 12 -33 13 -14 2 -29 8 -35 13 -17 16 -25 9 -25 -21 0 -33 27 -66 63 -75
18 -5 58 -45 44 -45 -2 0 -30 15 -62 33 -37 19 -61 40 -64 52 -2 11 -5 72 -8
135 -3 91 -8 118 -21 128 -27 21 -39 13 -47 -30 -4 -24 -10 -36 -13 -28 -7 20
-33 45 -60 59 -38 20 -38 4 -2 -34 18 -19 31 -38 27 -41 -3 -4 -1 -16 5 -28 7
-13 -3 -8 -28 16 -38 36 -80 58 -110 58 -25 0 -15 -39 14 -54 23 -12 95 -86
139 -144 7 -10 13 -41 13 -69 0 -44 4 -55 23 -66 12 -7 46 -28 74 -45 29 -17
70 -34 90 -38 73 -13 148 -45 214 -89 37 -25 74 -45 83 -45 8 0 47 17 86 37
l71 37 182 4 182 4 58 34 c40 23 71 34 98 34 27 0 51 8 72 24 44 34 292 166
311 166 19 0 17 -8 66 480 21 217 42 414 46 438 3 23 5 42 3 42 -3 0 -35 -33
-72 -72z m-182 -473 c-14 -21 -25 -42 -25 -46 0 -5 -4 -9 -10 -9 -11 0 29 91
45 102 20 15 15 -11 -10 -47z m-97 -47 c-2 -5 -8 -9 -13 -9 -5 0 -11 4 -13 9
-1 5 4 9 13 9 9 0 14 -4 13 -9z m12 -52 c0 -3 -4 -8 -10 -11 -5 -3 -10 -1 -10
4 0 6 5 11 10 11 6 0 10 -2 10 -4z m11 -29 c-10 -9 -11 -8 -5 6 3 10 9 15 12
12 3 -3 0 -11 -7 -18z m-51 -81 c0 -2 -8 -10 -17 -17 -16 -13 -17 -12 -4 4 13
16 21 21 21 13z"/>
<path d="M4191 4809 c-13 -5 -22 -12 -19 -14 3 -3 20 1 39 9 37 17 19 21 -20
5z"/>
<path d="M5226 4385 c-9 -26 -7 -32 5 -12 6 10 9 21 6 23 -2 3 -7 -2 -11 -11z"/>
<path d="M2040 4320 c-8 -5 -11 -12 -7 -16 4 -4 13 -2 19 4 15 15 7 24 -12 12z"/>
<path d="M1911 4264 c13 -14 38 -34 56 -45 41 -26 41 -37 2 -77 -18 -18 -30
-34 -28 -36 2 -2 18 -6 34 -10 24 -4 37 1 67 28 l38 33 -31 41 c-17 23 -36 42
-43 42 -7 0 -34 11 -60 25 -59 31 -65 31 -35 -1z"/>
<path d="M2010 4062 c0 -5 7 -13 16 -16 10 -4 14 -1 12 6 -5 15 -28 23 -28 10z"/>
<path d="M2198 4023 c7 -3 16 -2 19 1 4 3 -2 6 -13 5 -11 0 -14 -3 -6 -6z"/>
<path d="M2171 3974 c-7 -8 -11 -17 -9 -20 3 -2 13 5 23 16 10 11 14 20 9 20
-5 -1 -15 -8 -23 -16z"/>
<path d="M1450 3955 c0 -7 13 -18 29 -23 37 -13 33 7 -4 25 -20 9 -25 8 -25
-2z"/>
<path d="M6160 1645 c0 -13 8 -28 17 -33 12 -7 18 -27 21 -71 4 -52 7 -61 24
-61 15 0 17 3 8 19 -5 11 -10 40 -10 65 0 58 -13 92 -39 99 -17 4 -21 0 -21
-18z"/>
<path d="M6211 1419 c0 -24 4 -62 9 -84 6 -29 7 -19 3 40 -6 88 -13 114 -12
44z"/>
</g>
</svg>
